<?xml version="1.0" encoding="UTF-8"?>
<svg version="1.1" xmlns="http://www.w3.org/2000/svg" width="512" height="512">
<path d="M0 0 C1.01790619 0.00215515 2.03581238 0.0043103 3.08456421 0.00653076 C17.69363523 0.05620146 32.02575853 0.30709809 46.375 3.3125 C47.34985352 3.51117676 48.32470703 3.70985352 49.32910156 3.91455078 C97.7109774 14.03517194 141.69928269 35.9516877 177.375 70.3125 C178.3640332 71.26068604 178.3640332 71.26068604 179.37304688 72.22802734 C188.86130305 81.37247479 197.6012044 90.66984009 205.375 101.3125 C206.23306152 102.46355017 207.09113451 103.61459177 207.94921875 104.765625 C213.98736829 112.95680614 219.34595521 121.47054105 224.375 130.3125 C224.73948242 130.94430176 225.10396484 131.57610352 225.47949219 132.22705078 C247.08534998 169.97532572 256.85198095 212.74189997 256.6875 255.9375 C256.68534485 256.95540619 256.6831897 257.97331238 256.68096924 259.02206421 C256.63129854 273.63113523 256.38040191 287.96325853 253.375 302.3125 C253.07698486 303.77478027 253.07698486 303.77478027 252.77294922 305.26660156 C242.65232806 353.6484774 220.7358123 397.63678269 186.375 433.3125 C185.74287598 433.97185547 185.11075195 434.63121094 184.45947266 435.31054688 C175.31502521 444.79880305 166.01765991 453.5387044 155.375 461.3125 C154.22394983 462.17056152 153.07290823 463.02863451 151.921875 463.88671875 C143.73224019 469.92427396 135.22961724 475.30707302 126.375 480.3125 C125.66778809 480.7146875 124.96057617 481.116875 124.23193359 481.53125 C101.09654164 494.5566741 75.92537591 503.30551461 49.9375 508.625 C49.21860596 508.77235596 48.49971191 508.91971191 47.7590332 509.0715332 C33.08339502 511.86090125 18.55831162 512.66142619 3.64770508 512.62817383 C0.70811513 512.6250221 -2.2304558 512.64854926 -5.16992188 512.67382812 C-18.54306192 512.71848737 -31.43916711 511.51301542 -44.625 509.3125 C-46.33055054 509.03031616 -46.33055054 509.03031616 -48.07055664 508.74243164 C-91.33802759 500.97044532 -132.38793216 480.98345309 -165.625 452.3125 C-166.37007813 451.67828125 -167.11515625 451.0440625 -167.8828125 450.390625 C-181.38779833 438.57948485 -194.05918743 425.82889772 -204.625 411.3125 C-205.48149066 410.16255169 -206.33826433 409.01281411 -207.1953125 407.86328125 C-213.23534209 399.67315742 -218.61867614 391.16870382 -223.625 382.3125 C-224.0271875 381.60528809 -224.429375 380.89807617 -224.84375 380.16943359 C-237.8691741 357.03404164 -246.61801461 331.86287591 -251.9375 305.875 C-252.08485596 305.15610596 -252.23221191 304.43721191 -252.3840332 303.6965332 C-255.35789088 288.05024391 -255.99800362 272.57681954 -255.9375 256.6875 C-255.93534485 255.66959381 -255.9331897 254.65168762 -255.93096924 253.60293579 C-255.88129854 238.99386477 -255.63040191 224.66174147 -252.625 210.3125 C-252.42632324 209.33764648 -252.22764648 208.36279297 -252.02294922 207.35839844 C-241.90232806 158.9765226 -219.9858123 114.98821731 -185.625 79.3125 C-184.99287598 78.65314453 -184.36075195 77.99378906 -183.70947266 77.31445312 C-174.56502521 67.82619695 -165.26765991 59.0862956 -154.625 51.3125 C-153.47394983 50.45443848 -152.32290823 49.59636549 -151.171875 48.73828125 C-142.98224019 42.70072604 -134.47961724 37.31792698 -125.625 32.3125 C-124.91778809 31.9103125 -124.21057617 31.508125 -123.48193359 31.09375 C-100.34654164 18.0683259 -75.17537591 9.31948539 -49.1875 4 C-48.46860596 3.85264404 -47.74971191 3.70528809 -47.0090332 3.5534668 C-31.36274391 0.57960912 -15.88931954 -0.06050362 0 0 Z " fill="#0BA350" transform="translate(255.625,-0.3125)"/>
<path d="M0 0 C2.18823242 0.99975586 2.18823242 0.99975586 4.35546875 2.21484375 C5.14244141 2.65376953 5.92941406 3.09269531 6.74023438 3.54492188 C7.54783203 4.00447266 8.35542969 4.46402344 9.1875 4.9375 C10.00669922 5.39318359 10.82589844 5.84886719 11.66992188 6.31835938 C17.71851504 9.71851504 17.71851504 9.71851504 20 12 C19.60866156 18.15843128 18.11801572 23.98300395 16.5625 29.9375 C14.92927523 36.27169814 13.38701831 42.60681328 12 49 C12.78503906 48.79503906 13.57007813 48.59007812 14.37890625 48.37890625 C15.42949219 48.10949219 16.48007813 47.84007812 17.5625 47.5625 C18.59503906 47.29566406 19.62757813 47.02882812 20.69140625 46.75390625 C42.11752439 41.87168571 66.86751124 44.83985429 86.08203125 55.75 C89.66414884 57.2845082 91.28716001 57.07119796 95 56 C96.98526445 55.12096601 98.94318635 54.17849531 100.875 53.1875 C121.27295199 43.46751371 144.28877121 42.87765381 166 48 C167.67439181 48.64701955 169.34279474 49.31015006 171 50 C170.06356256 46.39555643 169.12564855 42.79149856 168.1875 39.1875 C167.92646484 38.18267578 167.66542969 37.17785156 167.39648438 36.14257812 C167.13544922 35.14033203 166.87441406 34.13808594 166.60546875 33.10546875 C166.34427246 32.09532715 166.08307617 31.08518555 165.81396484 30.04443359 C165.2695961 28.00835732 164.69671189 25.97970013 164.09619141 23.95947266 C163.67152588 22.51967041 163.67152588 22.51967041 163.23828125 21.05078125 C162.97700439 20.19782471 162.71572754 19.34486816 162.4465332 18.46606445 C161.92408018 15.58071836 162.04392095 13.77277345 163 11 C164.62646484 9.54614258 164.62646484 9.54614258 166.7109375 8.39453125 C167.46117187 7.96849609 168.21140625 7.54246094 168.984375 7.10351562 C169.77328125 6.67748047 170.5621875 6.25144531 171.375 5.8125 C172.92465969 4.94433257 174.47414568 4.075855 176.0234375 3.20703125 C177.05863525 2.64205933 177.05863525 2.64205933 178.11474609 2.06567383 C179.78836696 1.1196294 181.40038318 0.06641122 183 -1 C188.19126023 -0.77751742 191.94650403 1.44766628 196.25 4.125 C197.74901938 5.03287111 199.24909275 5.93900336 200.75 6.84375 C201.98943359 7.59398437 201.98943359 7.59398437 203.25390625 8.359375 C207.41465743 10.84517229 211.61997824 13.25140968 215.82763672 15.65673828 C218.10860043 16.9685609 220.38116006 18.29510618 222.64501953 19.63623047 C229.3861578 23.6507999 229.3861578 23.6507999 236.5546875 26.7890625 C240.46908162 28.39079488 242.2908573 29.779439 245 33 C245.68237305 36.06933594 245.68237305 36.06933594 245.76171875 39.484375 C245.8088501 41.31693848 245.8088501 41.31693848 245.85693359 43.18652344 C245.79139342 48.81145476 245.49155528 54.39685154 245 60 C238.50485247 63.08163934 231.74600641 64.84752794 224.8125 66.6875 C223.63751953 67.00783203 222.46253906 67.32816406 221.25195312 67.65820312 C212.50891191 70 212.50891191 70 208 70 C208.4125 70.46148437 208.825 70.92296875 209.25 71.3984375 C211.18477567 73.58369752 213.09399098 75.78960931 215 78 C215.63679688 78.72445312 216.27359375 79.44890625 216.9296875 80.1953125 C236.02177649 102.81445407 241.78280678 129.96502421 240 159 C237.01654023 183.14419395 223.05034777 206.18122887 205 222 C183.17500774 239.02291886 157.19218731 247.41379447 129.515625 244.65234375 C126.31684424 244.19701491 123.16679484 243.63979718 120 243 C118.52466797 242.70802734 118.52466797 242.70802734 117.01953125 242.41015625 C110.00464047 240.8440842 103.64125304 238.2830304 97.12890625 235.3046875 C92.00853618 233.05331886 92.00853618 233.05331886 86.7109375 233.85546875 C85.94007813 234.29503906 85.16921875 234.73460937 84.375 235.1875 C62.87145676 246.5532088 36.22825496 248.31622548 12.9765625 241.39794922 C-1.74145903 236.69283458 -14.49547205 229.36122083 -26 219 C-26.76828125 218.31421875 -27.5365625 217.6284375 -28.328125 216.921875 C-45.4813715 200.72825068 -57.02215811 177.03918386 -58.12255859 153.36303711 C-59.0630499 119.89579659 -48.71687888 96.056502 -27 71 C-30.24899589 70.05899655 -33.49920298 69.12226204 -36.75 68.1875 C-37.7076123 67.91196289 -38.66522461 67.63642578 -39.65185547 67.35253906 C-45.67964871 65.6297299 -51.70475519 64.02327274 -57.8203125 62.640625 C-60 62 -60 62 -63 60 C-65.3210009 51.58935002 -65.56987472 41.33955843 -63 33 C-58.44824875 27.01845888 -51.06617182 24.41466886 -44.34667969 21.52490234 C-38.40114825 18.81584272 -32.86345881 15.39001164 -27.25 12.0625 C-24.13321542 10.26711934 -21.01212845 8.47954444 -17.88867188 6.69580078 C-15.96536729 5.56672086 -14.0647749 4.39801789 -12.18945312 3.19091797 C-11.31740234 2.63162598 -10.44535156 2.07233398 -9.546875 1.49609375 C-8.78729492 0.99134521 -8.02771484 0.48659668 -7.24511719 -0.03344727 C-4.34827363 -1.28057685 -2.9755337 -0.95009191 0 0 Z " fill="#F7FCF9" transform="translate(165,134)"/>
<path d="M0 0 C3.62272645 3.01435387 6.94919876 6.26900892 10.234375 9.64501953 C10.89824219 10.31146484 11.56210937 10.97791016 12.24609375 11.66455078 C29.84361266 30.44841928 36.07918715 55.07650905 35.36621094 80.08789062 C34.65764289 93.83148635 29.2546915 107.89394979 22.234375 119.64501953 C13.19022375 118.39372715 6.1328109 110.15168743 0.234375 103.64501953 C-1.765625 100.64501953 -1.765625 100.64501953 -1.59375 98.59423828 C-1.40296875 97.84787109 -1.2121875 97.10150391 -1.015625 96.33251953 C-0.71591797 95.13175781 -0.71591797 95.13175781 -0.41015625 93.90673828 C0.09518786 92.13343985 0.68129491 90.38312803 1.296875 88.64501953 C2.54876773 84.63896281 2.95753479 80.82278995 3.234375 76.64501953 C3.31171875 75.68595703 3.3890625 74.72689453 3.46875 73.73876953 C4.16735309 58.05901122 -1.97698838 44.24584809 -12.015625 32.45751953 C-16.45340305 27.70648656 -21.22877192 24.02865197 -26.765625 20.64501953 C-27.41015625 20.24541016 -28.0546875 19.84580078 -28.71875 19.43408203 C-41.35533242 12.37246244 -58.11845292 11.7346264 -72.078125 14.70751953 C-87.67659007 19.34606724 -101.36921327 29.93278879 -109.19921875 44.27001953 C-110.51854312 47.02611554 -111.67714425 49.7902495 -112.765625 52.64501953 C-113.24708984 53.90572266 -113.24708984 53.90572266 -113.73828125 55.19189453 C-118.79820966 70.72469802 -115.71385031 86.38514665 -109.078125 100.89501953 C-105.85039998 107.0081351 -101.66314907 111.80828033 -96.765625 116.64501953 C-96.22421875 117.20833984 -95.6828125 117.77166016 -95.125 118.35205078 C-84.71473124 128.31541407 -70.77458777 132.03726591 -56.765625 131.83251953 C-55.92773438 131.831875 -55.08984375 131.83123047 -54.2265625 131.83056641 C-50.01345567 131.80121814 -46.05224278 131.54841242 -41.89453125 130.85595703 C-38.08742171 130.39711291 -38.08742171 130.39711291 -35.41796875 132.45361328 C-34.85207031 133.32115234 -34.28617187 134.18869141 -33.703125 135.08251953 C-28.68548406 142.19500062 -23.26769226 148.14377918 -15.765625 152.64501953 C-16.095625 153.63501953 -16.425625 154.62501953 -16.765625 155.64501953 C-19.20904841 156.82615779 -21.53626059 157.79319664 -24.078125 158.70751953 C-24.73619141 158.96339844 -25.39425781 159.21927734 -26.07226562 159.48291016 C-44.16807055 166.16787513 -67.75321632 166.55080079 -85.765625 159.64501953 C-86.72637939 159.29093018 -86.72637939 159.29093018 -87.70654297 158.9296875 C-111.08433137 150.18205184 -128.88898443 133.53199739 -139.578125 111.02001953 C-149.69489224 87.158403 -151.00814311 62.45387576 -141.390625 38.27001953 C-140.54121092 36.38329069 -139.66664544 34.50765534 -138.765625 32.64501953 C-138.32476562 31.72333984 -137.88390625 30.80166016 -137.4296875 29.85205078 C-133.76277889 22.67017729 -129.10380375 16.66427626 -123.765625 10.64501953 C-123.16234375 9.94634766 -122.5590625 9.24767578 -121.9375 8.52783203 C-90.90265695 -25.07075892 -35.65908209 -27.3655843 0 0 Z " fill="#0EA452" transform="translate(262.765625,206.35498046875)"/>
<path d="M0 0 C17.92405695 15.88913291 28.67100217 39.25511336 30.12548828 63.05322266 C31.26624696 87.97220742 22.53018861 111.42084329 6 130 C4.98486328 131.15822266 4.98486328 131.15822266 3.94921875 132.33984375 C-6.29167129 143.31360352 -18.94116442 150.18620369 -33 155 C-34.42699219 155.49113281 -34.42699219 155.49113281 -35.8828125 155.9921875 C-58.17365702 163.14979813 -83.6950156 159.6626358 -104.33203125 149.33203125 C-111.0951584 145.53808187 -117.1763939 141.11129726 -123 136 C-123.74894531 135.34644531 -124.49789062 134.69289063 -125.26953125 134.01953125 C-134.91411366 125.01679496 -142.29757727 113.28755672 -147 101 C-147.36738281 100.05898438 -147.73476562 99.11796875 -148.11328125 98.1484375 C-156.1698787 75.94152525 -154.7739103 51.37152398 -145 30 C-143.43315597 26.93462122 -141.78673624 23.94241245 -140 21 C-131.31567828 23.17108043 -124.87237302 29.52651793 -119 36 C-118.29875 36.763125 -117.5975 37.52625 -116.875 38.3125 C-115.40957686 42.81344251 -117.51734253 46.65427983 -119 51 C-123.68823564 67.74369871 -120.99670557 84.31029539 -112.8125 99.4375 C-103.8970843 113.49420294 -90.71663201 122.39161771 -74.7578125 126.58984375 C-70.75227201 127.18556861 -66.7942233 127.18433551 -62.75 127.1875 C-61.94175781 127.19974609 -61.13351562 127.21199219 -60.30078125 127.22460938 C-44.75467067 127.26192004 -30.08792979 121.01927865 -18.8125 110.375 C-7.40139227 98.40856364 -1.58912652 83.0972527 -1.79296875 66.66015625 C-2.82079393 48.48898279 -9.80709399 34.1935394 -23.1875 22.0078125 C-28.62013931 17.48708051 -34.47679668 14.63893225 -41 12 C-42.18335938 11.46826172 -42.18335938 11.46826172 -43.390625 10.92578125 C-49.7437008 8.67177082 -56.3468085 8.84520959 -63 8.875 C-64.29550781 8.86919922 -64.29550781 8.86919922 -65.6171875 8.86328125 C-69.55047338 8.86925889 -72.9983035 8.99965454 -76.875 9.7890625 C-80 10 -80 10 -82.1875 8.15625 C-82.785625 7.2796875 -83.38375 6.403125 -84 5.5 C-88.36911053 -0.51910218 -92.79602528 -5.57019618 -98.9375 -9.8125 C-99.948125 -10.534375 -100.95875 -11.25625 -102 -12 C-102 -12.66 -102 -13.32 -102 -14 C-67.74004167 -31.0625383 -29.01348059 -23.8934546 0 0 Z " fill="#0DA452" transform="translate(367,211)"/>
<path d="M0 0 C-0.2266333 0.50748779 -0.4532666 1.01497559 -0.68676758 1.5378418 C-12.69227858 28.63057411 -16.85230127 57.02054384 -6.07617188 85.43603516 C-4.60864147 89.02555523 -3.03056868 92.54601769 -1.35546875 96.04296875 C0 99 0 99 0 101 C-14.44281074 103.68703456 -28.48080065 101.96497092 -41 94 C-44.55035769 91.20179216 -47.80223026 88.19222768 -51 85 C-51.88365234 84.13375 -51.88365234 84.13375 -52.78515625 83.25 C-62.57894068 72.83001452 -64.67278332 59.02443632 -64.3125 45.29296875 C-63.56086311 31.19664518 -56.64594118 19.78220637 -46.62890625 10.2578125 C-33.15404373 -1.31495204 -16.98446814 -4.59039679 0 0 Z " fill="#0CA351" transform="translate(219,229)"/>
<path d="M0 0 C10.59846366 10.10588139 17.08854845 22.27891467 17.58984375 37.08691406 C17.64330798 44.64876148 16.95603565 51.57401004 14.16796875 58.671875 C13.78898437 59.64511719 13.41 60.61835938 13.01953125 61.62109375 C6.81227212 75.63227693 -4.2397113 83.90658601 -18.14453125 89.484375 C-23.98326937 91.3646466 -29.33312234 91.80914736 -35.45703125 91.796875 C-37.39449219 91.80074219 -37.39449219 91.80074219 -39.37109375 91.8046875 C-42.0942981 91.7001853 -44.26119231 91.49402146 -46.83203125 90.671875 C-45.60249391 86.83030618 -44.21845204 83.09510081 -42.67456055 79.36889648 C-33.23597561 56.56562977 -30.4034227 29.60826839 -39.80664062 6.25097656 C-41.52065075 2.19073945 -43.33072104 -1.81284135 -45.22265625 -5.79296875 C-46.83203125 -9.328125 -46.83203125 -9.328125 -46.83203125 -11.328125 C-29.55331667 -13.93623286 -13.86889029 -11.40118429 0 0 Z " fill="#0CA351" transform="translate(339.83203125,239.328125)"/>
<path d="M0 0 C4.79785179 1.69335945 8.92804761 4.37234994 13.1875 7.125 C12.95675781 8.04796875 12.72601563 8.9709375 12.48828125 9.921875 C12.33351318 10.54167236 12.17874512 11.16146973 12.01928711 11.80004883 C11.66861028 13.2012723 11.31652447 14.6021438 10.96313477 16.00268555 C9.91343913 20.17287717 8.89525689 24.34827881 7.9140625 28.53515625 C7.59248169 29.8823877 7.59248169 29.8823877 7.2644043 31.25683594 C6.84327373 33.02240052 6.43045547 34.78997173 6.02661133 36.55957031 C5.83091553 37.37135742 5.63521973 38.18314453 5.43359375 39.01953125 C5.26529053 39.73987549 5.0969873 40.46021973 4.92358398 41.20239258 C3.11200467 45.9341296 -1.55347255 47.8853932 -5.75 50.25 C-6.68102539 50.78947266 -6.68102539 50.78947266 -7.63085938 51.33984375 C-14.25418232 55.10646191 -17.50461387 55.25156346 -24.82421875 53.2890625 C-25.97746391 52.99085098 -25.97746391 52.99085098 -27.15400696 52.68661499 C-28.77481627 52.26558893 -30.3944452 51.83999589 -32.01293945 51.41015625 C-34.4989308 50.7502838 -36.98824325 50.10444412 -39.47851562 49.4609375 C-41.0522957 49.05029219 -42.62587097 48.63886102 -44.19921875 48.2265625 C-44.94709152 48.03172272 -45.69496429 47.83688293 -46.46549988 47.63613892 C-51.69561398 46.24188602 -51.69561398 46.24188602 -52.8125 45.125 C-53.95753474 39.77936028 -54.70641836 34.38036187 -52.8125 29.125 C-48.63970415 25.12229094 -43.87944403 22.98222003 -38.68164062 20.54150391 C-33.61665469 18.04090414 -28.78440986 15.12364415 -23.91693115 12.26321411 C-20.13998438 10.05043116 -16.33978414 7.87772353 -12.54272461 5.69970703 C-10.88359351 4.74277279 -9.22931258 3.77727283 -7.58422852 2.79638672 C-3.10247454 0.13788776 -3.10247454 0.13788776 0 0 Z " fill="#0DA452" transform="translate(162.8125,142.875)"/>
<path d="M0 0 C2.71875 1.28417969 2.71875 1.28417969 5.5 2.921875 C6.54236816 3.52829834 7.58473633 4.13472168 8.65869141 4.75952148 C10.34347701 5.76317902 12.02825509 6.76684943 13.71258545 7.77127075 C15.4613055 8.81359111 17.21091639 9.85439693 18.9609375 10.89453125 C19.54571869 11.24350967 20.13049988 11.5924881 20.73300171 11.95204163 C24.61354975 14.24646743 28.5577819 16.32550547 32.6015625 18.32421875 C46.95770613 25.61808423 46.95770613 25.61808423 48.92773438 30.12011719 C49.85467652 34.94566893 49.19902054 39.28264142 48 44 C39.98128722 46.9894324 31.78317153 49.19219623 23.5 51.3125 C22.43716797 51.59109863 21.37433594 51.86969727 20.27929688 52.15673828 C18.76432617 52.53741455 18.76432617 52.53741455 17.21875 52.92578125 C16.31060547 53.15692627 15.40246094 53.38807129 14.46679688 53.6262207 C7.36976344 54.70159265 -0.68157514 49.68010605 -6.27929688 45.640625 C-10.90626528 41.22898657 -11.49469706 34.49426657 -12.52587891 28.4609375 C-13.33817695 24.244684 -14.64013003 20.1707933 -15.875 16.0625 C-18.15194217 8.45582652 -18.15194217 8.45582652 -17 5 C-14.70703125 3.359375 -14.70703125 3.359375 -11.8125 1.75 C-10.87019531 1.20859375 -9.92789062 0.6671875 -8.95703125 0.109375 C-5.36628812 -1.2377466 -3.7027059 -0.88139224 0 0 Z " fill="#0DA351" transform="translate(354,144)"/>
<path d="M0 0 C5.88852431 0.51296214 9.79687327 4.68471959 14.2734375 8.28515625 C14.99015625 8.83558594 15.706875 9.38601562 16.4453125 9.953125 C29.01168975 20.13189057 38.27820324 36.66469148 42.2734375 52.28515625 C42.47582031 52.97609375 42.67820312 53.66703125 42.88671875 54.37890625 C47.9777899 74.60465832 43.24760447 96.37002813 33.2734375 114.28515625 C32.6134375 114.94515625 31.9534375 115.60515625 31.2734375 116.28515625 C26.71788194 115.72960069 26.71788194 115.72960069 25.2734375 114.28515625 C25.53490791 108.40207199 27.66335619 103.60238574 30.01953125 98.25 C36.75920241 82.31414203 36.38349975 61.33979685 30.0859375 45.28515625 C23.35760183 30.25919379 14.94952332 19.14028938 1.15039062 10.12670898 C-0.76171875 8.828125 -0.76171875 8.828125 -3.7265625 6.28515625 C-4.22265625 3.5234375 -4.22265625 3.5234375 -3.7265625 1.28515625 C-2.7265625 0.28515625 -2.7265625 0.28515625 0 0 Z " fill="#F5FBF8" transform="translate(344.7265625,206.71484375)"/>
<path d="M0 0 C0.2734375 2.79296875 0.2734375 2.79296875 0 6 C-1.8359375 7.80078125 -1.8359375 7.80078125 -4.375 9.3125 C-22.05193193 20.75638118 -32.77605339 37.23551563 -37.2734375 57.74609375 C-40.48855287 74.67042978 -36.77655766 92.07936339 -28.828125 107.234375 C-28 109 -28 109 -28.3125 111.1875 C-29 113 -29 113 -30 114 C-32.25 114.5625 -32.25 114.5625 -35 114 C-46.80902253 101.60781586 -47.5912705 80.90743941 -47.2421875 64.86328125 C-46.43336521 44.22229658 -36.31123877 23.98265241 -21.26953125 9.890625 C-6.99022189 -2.00470328 -6.99022189 -2.00470328 0 0 Z " fill="#F8FCFA" transform="translate(171,208)"/>
<path d="M0 0 C0.66 0 1.32 0 2 0 C3.17166296 2.34332592 3.12908313 3.74988459 3.1328125 6.359375 C3.13410156 7.22820312 3.13539063 8.09703125 3.13671875 8.9921875 C3.13285156 9.90226562 3.12898438 10.81234375 3.125 11.75 C3.12886719 12.64460938 3.13273437 13.53921875 3.13671875 14.4609375 C3.1298951 19.0873727 2.94932093 23.44928696 2 28 C1.34 28 0.68 28 0 28 C-0.76327482 24.60543565 -1.12814848 21.46530859 -1.1328125 17.98828125 C-1.13410156 17.06595703 -1.13539063 16.14363281 -1.13671875 15.19335938 C-1.13285156 14.24267578 -1.12898437 13.29199219 -1.125 12.3125 C-1.12886719 11.35021484 -1.13273438 10.38792969 -1.13671875 9.39648438 C-1.13542969 8.47802734 -1.13414062 7.55957031 -1.1328125 6.61328125 C-1.13168457 5.77579346 -1.13055664 4.93830566 -1.12939453 4.07543945 C-1 2 -1 2 0 0 Z " fill="#1DA95C" transform="translate(255,266)"/>
</svg>
